<?xml version="1.0" encoding="utf-8"?>
<!-- Generator: Adobe Illustrator 25.0.1, SVG Export Plug-In . SVG Version: 6.00 Build 0)  -->
<svg version="1.1" id="Layer_1" xmlns="http://www.w3.org/2000/svg" xmlns:xlink="http://www.w3.org/1999/xlink" x="0px" y="0px"
	 viewBox="0 0 100 125" style="enable-background:new 0 0 100 125;" xml:space="preserve">
<style type="text/css">
	.st0{fill:url(#SVGID_1_);}
</style>
<g id="Layer_2_1_">
</g>
<g id="Layer_1_1_">
	
		<linearGradient id="SVGID_1_" gradientUnits="userSpaceOnUse" x1="44.3771" y1="116.3787" x2="417.1537" y2="-211.5442" gradientTransform="matrix(0.6526 -0.7577 0.7577 0.6526 -66.4632 81.6367)">
		<stop  offset="0" style="stop-color:#27292C;stop-opacity:0.93"/>
		<stop  offset="1.378131e-02" style="stop-color:#272C30;stop-opacity:0.9314"/>
		<stop  offset="9.161247e-02" style="stop-color:#253741;stop-opacity:0.9391"/>
		<stop  offset="0.1881" style="stop-color:#253F4C;stop-opacity:0.9488"/>
		<stop  offset="0.324" style="stop-color:#244453;stop-opacity:0.9623"/>
		<stop  offset="0.7012" style="stop-color:#244555"/>
	</linearGradient>
	<path class="st0" d="M79.6,23.2L72,28.5c-14.8-10.6-35.2-9.1-48.2,3.6l-8.3-4.1c-1.1-0.6-2.1,0.7-1.4,1.7l5.3,7.6
		C8.7,52,10.2,72.4,22.9,85.5l-4.1,8.3c-0.6,1.1,0.7,2.1,1.7,1.4l7.6-5.3c14.8,10.6,35.2,9.1,48.2-3.6l8.3,4.1
		c1.1,0.6,2.1-0.7,1.4-1.7l-5.3-7.6c10.6-14.8,9.1-35.2-3.6-48.2l4.1-8.3C81.8,23.5,80.6,22.4,79.6,23.2z M66.4,32.4l-14.1,9.9
		l-2.9-8.9c-0.4-1.2-2.1-1-2.4,0.2l-1.6,9.2l-15.5-7.7C40.1,26.5,54.9,25.4,66.4,32.4z M45,64.9c-3.2-2.7-3.5-7.5-0.8-10.7
		C47,51,51.8,50.7,55,53.4c3.2,2.7,3.5,7.5,0.8,10.7C53,67.3,48.2,67.7,45,64.9z M23.2,42.8l9.9,14.1l-8.9,2.9
		c-1.2,0.4-1,2.1,0.2,2.4l9.2,1.6l-7.7,15.5C17.3,69.1,16.2,54.3,23.2,42.8z M33.6,86l14.1-9.9l2.9,8.9c0.4,1.2,2.1,1,2.4-0.2
		l1.6-9.2l15.5,7.7C59.9,91.8,45.1,93,33.6,86z M76.8,75.6l-9.9-14.1l8.9-2.9c1.2-0.4,1-2.1-0.2-2.4l-9.2-1.6L74.1,39
		C82.7,49.3,83.8,64.1,76.8,75.6z"/>
</g>
</svg>
