<?xml version="1.0" encoding="utf-8"?>
<!-- Generator: Adobe Illustrator 25.0.1, SVG Export Plug-In . SVG Version: 6.00 Build 0)  -->
<svg version="1.1" id="Layer_1" xmlns="http://www.w3.org/2000/svg" xmlns:xlink="http://www.w3.org/1999/xlink" x="0px" y="0px"
	 viewBox="0 0 5000 4000" style="enable-background:new 0 0 5000 4000;" xml:space="preserve">
<style type="text/css">
	.st0{fill:#FFFFFF;}
</style>
<g>
	<path class="st0" d="M2961.21,2210.26l-294.28-173.06l-0.12-0.06c-11.01-8.44-22.88-16.38-35.58-23.82
		c-111.66-65.58-223.88-130.23-336.17-194.75l-1.69-1c-66.77-38.39-133.6-76.77-200.31-115.29
		c-78.77-45.45-157.55-90.9-236.26-136.48l3.13-3.06l134.67-131.79c39.89,22.69,79.65,46.14,121.29,70.08
		c8.07-8.63,15.69-16.69,23.19-24.88c242.52-266.71,677.22-187.12,808.45,148.05c0.13,0.31,0.25,0.56,0.31,0.88l-182.56,46.95
		c-80.96-166.37-284.78-223.07-436.21-117.73c-16.07,11.13-30.44,24.69-49.14,40.08c12.82,7.94,21.95,14.13,31.45,19.63
		c132.54,76.52,264.77,153.55,397.69,229.45C2856.36,1927.48,2941.45,2049.33,2961.21,2210.26z"/>
	<path class="st0" d="M3143.2,2451.46l-133.48,130.6c-47.83-27.57-95.97-55.39-144.86-83.59c-22.57,22.94-43.45,47.39-67.52,68.21
		c-249.89,215.94-638.58,120.04-761.24-184.68l183-47.08c72.71,143.11,242.45,204.44,388.81,135.67
		c32.33-15.19,60.65-38.76,97.28-62.71c-17.63-11-27.51-17.51-37.76-23.38c-136.98-79.21-274.28-157.93-411.07-237.51
		c-116.41-67.77-192-167.18-225.69-297.72c-2.81-10.75,0.75-23.2,1.31-34.82c11.31,2.75,24.01,3.13,33.7,8.69
		c225.64,129.79,450.96,260.08,676.34,390.25c10.5,6.06,21.26,11.57,37.45,20.26l0.38,0.19l349.24,205.32
		C3134.08,2443.02,3138.77,2447.15,3143.2,2451.46z"/>
	<polyline class="st0" points="2961.21,2210.26 2666.93,2037.2 2666.8,2037.14 2295.06,1818.57 2293.37,1817.57 1859.92,1562.74 	
		"/>
	<line class="st0" x1="2947.83" y1="1625.07" x2="2765.27" y2="1672.03"/>
	<line class="st0" x1="3143.21" y1="2451.46" x2="3009.72" y2="2582.07"/>
</g>
</svg>
